HIERARCHY
ROOT Hips
{
	OFFSET 0.00000 0.00000 0.00000
	CHANNELS 6 Xposition Yposition Zposition Zrotation Yrotation Xrotation 
	JOINT LHipJoint
	{
		OFFSET 0 0 0
		CHANNELS 3 Zrotation Yrotation Xrotation
		JOINT LeftUpLeg
		{
			OFFSET 1.84395 -1.68683 0.74144
			CHANNELS 3 Zrotation Yrotation Xrotation
			JOINT LeftLeg
			{
				OFFSET 2.27037 -6.23779 0.00000
				CHANNELS 3 Zrotation Yrotation Xrotation
				JOINT LeftFoot
				{
					OFFSET 2.56918 -7.05877 0.00000
					CHANNELS 3 Zrotation Yrotation Xrotation
					JOINT LeftToeBase
					{
						OFFSET 0.22276 -0.61202 1.71784
						CHANNELS 3 Zrotation Yrotation Xrotation
						End Site
						{
							OFFSET 0.00000 -0.00000 0.91613
						}
					}
				}
			}
		}
	}
	JOINT RHipJoint
	{
		OFFSET 0 0 0
		CHANNELS 3 Zrotation Yrotation Xrotation
		JOINT RightUpLeg
		{
			OFFSET -1.76833 -1.68684 0.74144
			CHANNELS 3 Zrotation Yrotation Xrotation
			JOINT RightLeg
			{
				OFFSET -2.49360 -6.85110 0.00000
				CHANNELS 3 Zrotation Yrotation Xrotation
				JOINT RightFoot
				{
					OFFSET -2.55538 -7.02085 0.00000
					CHANNELS 3 Zrotation Yrotation Xrotation
					JOINT RightToeBase
					{
						OFFSET -0.21516 -0.59115 1.68050
						CHANNELS 3 Zrotation Yrotation Xrotation
						End Site
						{
							OFFSET -0.00000 -0.00000 0.89604
						}
					}
				}
			}
		}
	}
	JOINT LowerBack
	{
		OFFSET 0 0 0
		CHANNELS 3 Zrotation Yrotation Xrotation
		JOINT Spine
		{
			OFFSET 0.06382 1.72312 -0.19613
			CHANNELS 3 Zrotation Yrotation Xrotation
			JOINT Spine1
			{
				OFFSET -0.00055 1.73507 0.23859
				CHANNELS 3 Zrotation Yrotation Xrotation
				JOINT Neck
				{
					OFFSET 0 0 0
					CHANNELS 3 Zrotation Yrotation Xrotation
					JOINT Neck1
					{
						OFFSET 0.03638 1.65562 0.09633
						CHANNELS 3 Zrotation Yrotation Xrotation
						JOINT Head
						{
							OFFSET 0.06388 1.62807 -0.32386
							CHANNELS 3 Zrotation Yrotation Xrotation
							End Site
							{
								OFFSET 0.00995 1.67644 -0.12021
							}
						}
					}
				}
				JOINT LeftShoulder
				{
					OFFSET 0 0 0
					CHANNELS 3 Zrotation Yrotation Xrotation
					JOINT LeftArm
					{
						OFFSET 3.09648 1.42991 0.28122
						CHANNELS 3 Zrotation Yrotation Xrotation
						JOINT LeftForeArm
						{
							OFFSET 5.11878 -0.00000 -0.00000
							CHANNELS 3 Zrotation Yrotation Xrotation
							JOINT LeftHand
							{
								OFFSET 3.59971 -0.00000 0.00000
								CHANNELS 3 Zrotation Yrotation Xrotation
								JOINT LeftFingerBase
								{
									OFFSET 0 0 0
									CHANNELS 3 Zrotation Yrotation Xrotation
									JOINT LeftHandIndex1
									{
										OFFSET 0.62877 -0.00000 0.00000
										CHANNELS 3 Zrotation Yrotation Xrotation
										End Site
										{
											OFFSET 0.50693 -0.00000 0.00000
										}
									}
								}
								JOINT LThumb
								{
									OFFSET 0 0 0
									CHANNELS 3 Zrotation Yrotation Xrotation
									End Site
									{
										OFFSET 0.51467 -0.00000 0.51467
									}
								}
							}
						}
					}
				}
				JOINT RightShoulder
				{
					OFFSET 0 0 0
					CHANNELS 3 Zrotation Yrotation Xrotation
					JOINT RightArm
					{
						OFFSET -3.33565 1.14597 0.05047
						CHANNELS 3 Zrotation Yrotation Xrotation
						JOINT RightForeArm
						{
							OFFSET -5.49020 -0.00000 0.00000
							CHANNELS 3 Zrotation Yrotation Xrotation
							JOINT RightHand
							{
								OFFSET -3.20659 -0.00000 -0.00000
								CHANNELS 3 Zrotation Yrotation Xrotation
								JOINT RightFingerBase
								{
									OFFSET 0 0 0
									CHANNELS 3 Zrotation Yrotation Xrotation
									JOINT RightHandIndex1
									{
										OFFSET -0.69188 -0.00000 0.00000
										CHANNELS 3 Zrotation Yrotation Xrotation
										End Site
										{
											OFFSET -0.55781 -0.00000 0.00000
										}
									}
								}
								JOINT RThumb
								{
									OFFSET 0 0 0
									CHANNELS 3 Zrotation Yrotation Xrotation
									End Site
									{
										OFFSET -0.56633 -0.00000 0.56633
									}
								}
							}
						}
					}
				}
			}
		}
	}
}
MOTION
Frames: 13
Frame Time: .0083333
0.7423 17.5598 8.9489 -8.7284 5.5075 12.3091 0.0000 0.0000 0.0000 -9.1823 -39.2995 10.0615 0.0153 -0.7990 -2.1959 -4.9200 36.8555 -25.8649 0.0338 -1.1875 -3.2649 0.0000 0.0000 0.0000 25.4131 25.6604 2.4190 -0.0089 -0.6076 1.6695 1.4839 -25.8638 -26.2026 -0.2189 -3.0122 8.3127 7.5295 3.6855 6.0467 1.4787 5.9011 -5.9630 -3.4082 2.4350 -9.1712 -4.0802 -8.9485 -12.7578 5.1629 -12.8710 22.5658 0.8390 -5.7527 9.8706 -0.0000 0.0000 0.0000 -87.8469 9.5917 13.0033 91.4692 -59.9918 -61.2723 -0.0000 0.0000 -62.8426 28.0372 16.0119 8.3567 -7.1250 0.0000 -0.0000 0.3008 47.9902 0.0222 -0.0000 0.0000 0.0000 72.6867 57.4704 34.2494 -38.8548 47.3766 -17.5919 0.0000 -0.0000 -22.8396 30.1216 -59.1941 -26.4882 7.1250 -0.0000 -0.0000 100.6393 -62.6087 -71.4863
0.7479 17.5594 8.9433 -8.7982 5.2824 12.3763 0.0000 0.0000 0.0000 -9.1262 -39.3441 10.0648 0.0151 -0.7937 -2.1813 -4.9632 37.0154 -26.1184 0.0272 -1.0655 -2.9292 0.0000 0.0000 0.0000 25.4365 25.9228 2.4468 -0.0081 -0.5828 1.6015 1.4856 -25.8593 -26.1770 -0.2318 -3.0987 8.5538 7.7865 3.6687 6.1265 1.4442 5.9130 -6.0013 -3.5948 2.4177 -9.2346 -3.8708 -8.8950 -12.7143 4.9734 -12.8164 22.8235 0.7483 -5.7250 9.9222 -0.0000 0.0000 0.0000 -87.7643 9.3901 12.9983 91.6321 -59.9899 -61.4134 -0.0000 0.0000 -62.7510 27.9581 15.8945 8.2706 -7.1250 0.0000 -0.0000 0.2406 47.8478 0.0169 -0.0000 0.0000 0.0000 74.3442 58.6306 37.0529 -40.8029 48.5384 -19.0387 0.0000 -0.0000 -22.9901 30.1834 -59.4947 -26.6163 7.1250 -0.0000 -0.0000 101.2017 -62.6149 -72.2018
0.7543 17.5602 8.9377 -8.8445 5.0843 12.4314 0.0000 0.0000 0.0000 -9.1572 -39.4873 10.1739 0.0154 -0.8011 -2.2017 -5.0369 37.2652 -26.4431 0.0202 -0.9169 -2.5203 0.0000 0.0000 0.0000 25.4165 26.0686 2.4095 -0.0079 -0.5744 1.5784 1.4828 -25.7936 -26.0584 -0.2411 -3.1596 8.7233 8.0195 3.6242 6.1623 1.4166 5.8784 -6.0012 -3.7502 2.3834 -9.2375 -3.6754 -8.8490 -12.6395 4.7772 -12.7622 23.0144 0.6599 -5.7023 9.9449 0.0000 -0.0000 0.0000 -87.6972 9.0735 13.0156 91.6679 -59.9895 -61.4443 -0.0000 0.0000 -62.4686 27.9882 15.8474 8.2574 -7.1250 0.0000 -0.0000 0.2765 47.8002 0.0191 0.0000 -0.0000 0.0000 76.1203 59.8730 40.0838 -42.5151 49.4914 -20.3314 0.0000 -0.0000 -23.4062 30.2215 -59.6810 -26.6953 7.1250 -0.0000 -0.0000 101.5512 -62.6175 -72.6465
0.7594 17.5628 8.9330 -8.8250 4.8731 12.4870 0.0000 0.0000 0.0000 -9.2331 -39.4981 10.2149 0.0156 -0.8075 -2.2192 -5.0709 37.4059 -26.7202 0.0137 -0.7568 -2.0798 0.0000 0.0000 0.0000 25.3090 26.0827 2.3031 -0.0079 -0.5731 1.5748 1.4830 -25.6737 -25.7923 -0.2341 -3.1143 8.5972 8.1406 3.5990 6.1899 1.3703 5.8562 -6.0051 -3.8654 2.3617 -9.2459 -3.5726 -8.8191 -12.4819 4.6833 -12.7288 23.1003 0.6231 -5.6907 9.9298 -0.0000 -0.0000 0.0000 -87.6330 8.7670 13.1005 91.6653 -59.9895 -61.4421 -0.0000 0.0000 -62.2207 28.0519 15.6513 8.1808 -7.1250 0.0000 -0.0000 0.3652 47.5922 0.0234 -0.0000 -0.0000 0.0000 78.1328 60.9844 43.2341 -44.0446 50.2918 -21.5012 0.0000 -0.0000 -23.8466 30.5971 -59.9096 -27.0961 7.1250 -0.0000 -0.0000 102.1087 -62.5185 -73.2246
0.7616 17.5663 8.9265 -8.8396 4.6458 12.5159 0.0000 0.0000 0.0000 -9.1638 -39.2625 10.0832 0.0155 -0.8031 -2.2072 -5.0429 37.3473 -26.7693 0.0109 -0.6736 -1.8512 0.0000 0.0000 0.0000 25.2602 26.0759 2.1540 -0.0086 -0.6005 1.6503 1.4813 -25.5301 -25.4894 -0.2221 -3.0338 8.3730 8.2193 3.5733 6.2600 1.3389 5.8344 -6.0043 -3.9452 2.3423 -9.2795 -3.5747 -8.8174 -12.2591 4.7612 -12.7495 23.0839 0.6580 -5.6983 9.8890 0.0000 -0.0000 0.0000 -87.6139 8.4251 13.1627 91.5903 -59.9904 -61.3772 -0.0000 0.0000 -62.0788 28.0653 15.3292 8.0231 -7.1250 0.0000 -0.0000 0.4213 47.2364 0.0233 0.0000 -0.0000 0.0000 80.4621 61.9248 46.6609 -45.3122 50.9205 -22.4809 0.0000 -0.0000 -24.4150 31.0582 -60.2290 -27.5986 7.1250 -0.0000 -0.0000 102.8567 -62.3980 -74.0242
0.7617 17.5697 8.9182 -8.8709 4.4490 12.5250 0.0000 0.0000 0.0000 -9.0489 -39.0018 9.9191 0.0152 -0.7962 -2.1881 -5.0258 37.2872 -26.6823 0.0114 -0.6884 -1.8918 0.0000 0.0000 0.0000 25.2472 26.0764 2.0058 -0.0096 -0.6335 1.7409 1.4950 -25.4504 -25.1780 -0.2069 -2.9287 8.0803 8.1967 3.4928 6.2832 1.3804 5.7241 -5.9364 -3.8749 2.2951 -9.2374 -3.4946 -8.8018 -12.1455 4.7187 -12.7367 23.0803 0.6386 -5.6941 9.8568 0.0000 0.0000 0.0000 -87.7925 7.9632 13.0619 91.5353 -59.9911 -61.3296 -0.0000 0.0000 -61.9433 28.0859 15.1309 7.9298 -7.1250 0.0000 -0.0000 0.4669 47.0190 0.0233 0.0000 0.0000 0.0000 83.3617 62.7927 50.6016 -46.1371 51.3136 -23.1230 0.0000 -0.0000 -24.9365 31.7992 -60.9213 -28.4514 7.1250 -0.0000 -0.0000 75.7148 62.2194 104.3596
0.7618 17.5723 8.9095 -8.8918 4.2895 12.5094 0.0000 0.0000 0.0000 -9.0094 -38.8320 9.8496 0.0151 -0.7925 -2.1781 -5.0493 37.3228 -26.5749 0.0147 -0.7841 -2.1550 0.0000 0.0000 0.0000 25.2199 26.0016 1.8710 -0.0104 -0.6589 1.8108 1.4905 -25.3128 -24.9097 -0.1945 -2.8403 7.8346 8.1194 3.3902 6.2554 1.4648 5.5754 -5.8532 -3.7200 2.2367 -9.1610 -3.4079 -8.7491 -11.9628 4.5954 -12.6545 23.0955 0.6034 -5.6673 9.8086 0.0000 -0.0000 0.0000 -88.0858 7.5233 12.9670 91.4438 -59.9921 -61.2503 -0.0000 0.0000 -61.8104 27.9823 15.0701 7.8651 -7.1250 0.0000 -0.0000 0.3753 46.9362 0.0179 0.0000 -0.0000 0.0000 86.7169 63.4390 54.7265 -45.7977 51.1533 -22.8583 0.0000 -0.0000 -25.4377 30.3982 -59.8624 -26.9010 7.1250 -0.0000 -0.0000 101.9449 -62.5765 -73.0918
0.7622 17.5740 8.8992 -8.9798 4.1443 12.4279 0.0000 0.0000 0.0000 -8.9230 -38.5841 9.8207 0.0150 -0.7907 -2.1732 -5.0531 37.2985 -26.4093 0.0194 -0.8983 -2.4690 0.0000 0.0000 0.0000 25.2963 25.8814 1.7842 -0.0117 -0.6978 1.9175 1.4537 -25.0683 -24.7193 -0.1853 -2.7726 7.6462 8.1354 3.3009 6.3342 1.5585 5.4716 -5.8314 -3.6223 2.1866 -9.2043 -3.4101 -8.6803 -11.5693 4.5540 -12.5520 23.0761 0.6228 -5.6357 9.7199 -0.0000 -0.0000 0.0000 -88.3323 7.2292 13.0579 91.2686 -59.9939 -61.0987 -0.0000 0.0000 -61.7508 27.9401 15.1049 7.8688 -7.1250 0.0000 -0.0000 0.3304 46.9687 0.0161 -0.0000 -0.0000 0.0000 90.3663 63.7108 58.7025 -44.5028 50.5226 -21.8543 0.0000 -0.0000 -25.5581 30.9204 -60.0379 -27.4258 7.1250 -0.0000 -0.0000 102.4643 -62.4279 -73.5606
0.7615 17.5741 8.8875 -9.0642 3.9807 12.3561 0.0000 0.0000 0.0000 -8.8215 -38.3114 9.7716 0.0151 -0.7931 -2.1797 -5.0687 37.2991 -26.2203 0.0226 -0.9705 -2.6675 0.0000 0.0000 0.0000 25.3567 25.7279 1.6510 -0.0132 -0.7410 2.0364 1.4276 -24.8265 -24.4329 -0.1694 -2.6512 7.3091 8.0665 3.2391 6.4091 1.6970 5.3972 -5.7802 -3.4324 2.1603 -9.2198 -3.3353 -8.6108 -11.4459 4.3599 -12.4303 23.1733 0.5662 -5.5949 9.7061 0.0000 -0.0000 0.0000 -88.6213 6.8631 13.2829 90.9925 -59.9963 -60.8595 -0.0000 0.0000 -61.7001 28.1333 15.1544 7.9573 -7.1250 0.0000 -0.0000 0.5093 47.0522 0.0258 0.0000 -0.0000 0.0000 94.3214 63.8617 62.5284 -41.5410 48.9568 -19.5937 0.0000 -0.0000 -24.8346 30.4163 -60.0346 -26.9580 7.1250 -0.0000 -0.0000 102.2608 -62.5827 -73.5011
0.7606 17.5727 8.8758 -9.0454 3.7897 12.3359 0.0000 0.0000 0.0000 -8.8486 -38.1671 9.7300 0.0149 -0.7869 -2.1625 -5.1220 37.4097 -26.1121 0.0261 -1.0422 -2.8650 0.0000 0.0000 0.0000 25.2483 25.5235 1.4301 -0.0145 -0.7764 2.1338 1.4119 -24.5858 -24.0437 -0.1515 -2.5082 6.9123 7.8030 3.2475 6.3654 1.8648 5.3824 -5.6795 -3.1014 2.1840 -9.1203 -3.2696 -8.5812 -11.5644 4.0819 -12.3440 23.3706 0.4646 -5.5714 9.7699 -0.0000 -0.0000 0.0000 -88.9878 6.3899 13.7381 90.5084 -59.9990 -60.4403 -0.0000 0.0000 -61.5994 28.3095 15.2084 8.0430 -7.1250 0.0000 -0.0000 0.6717 47.1384 0.0354 -0.0000 -0.0000 0.0000 98.0312 64.0577 66.0558 -37.5813 46.5698 -16.6608 0.0000 -0.0000 -23.4972 29.5942 -60.1998 -26.2360 7.1250 -0.0000 -0.0000 102.2399 -62.8464 -73.8135
0.7596 17.5715 8.8643 -9.0766 3.6030 12.2892 0.0000 0.0000 0.0000 -8.8556 -38.0894 9.7497 0.0141 -0.7660 -2.1053 -5.1566 37.5079 -26.1792 0.0283 -1.0868 -2.9877 0.0000 0.0000 0.0000 25.2296 25.4043 1.3199 -0.0150 -0.7913 2.1748 1.4021 -24.4031 -23.7259 -0.1380 -2.3945 6.5973 7.8206 3.3243 6.3432 1.8689 5.4787 -5.5991 -3.1134 2.2369 -9.0069 -3.2035 -8.6192 -11.7354 4.0224 -12.4130 23.6354 0.4120 -5.5923 9.8908 -0.0000 -0.0000 0.0000 -89.0577 5.8788 14.5584 89.8418 -59.9999 -59.8630 -0.0000 0.0000 -61.5629 28.3821 15.3074 8.1177 -7.1250 0.0000 -0.0000 0.7289 47.2595 0.0406 -0.0000 -0.0000 0.0000 101.6594 64.1664 68.9322 -32.9273 43.2740 -13.3722 0.0000 -0.0000 -21.3095 28.5711 -60.5643 -25.3733 7.1250 -0.0000 -0.0000 102.5218 -63.1813 -74.5959
0.7570 17.5704 8.8537 -9.1600 3.3643 12.2401 0.0000 0.0000 0.0000 -8.8595 -38.1031 9.8863 0.0134 -0.7484 -2.0567 -5.1859 37.6602 -26.5893 0.0209 -0.9338 -2.5668 0.0000 0.0000 0.0000 25.3009 25.3940 1.2915 -0.0151 -0.7944 2.1832 1.3818 -24.2131 -23.5019 -0.1328 -2.3493 6.4721 8.1181 3.4572 6.3207 1.6526 5.6604 -5.5158 -3.5213 2.3080 -8.8352 -3.0124 -8.7122 -12.1843 4.1930 -12.6604 24.0979 0.3764 -5.6453 10.1525 0.0000 0.0000 0.0000 -88.6901 5.2553 15.6657 89.0975 -59.9969 -59.2184 -0.0000 0.0000 -61.6283 28.4732 15.4095 8.2005 -7.1250 0.0000 -0.0000 0.8038 47.3870 0.0473 0.0000 0.0000 0.0000 104.1140 64.5244 71.4348 -28.9853 40.0076 -10.7512 0.0000 -0.0000 -19.8306 27.6051 -61.1413 -24.6060 7.1250 -0.0000 -0.0000 103.2525 -63.5008 -75.9180
0.7537 17.5680 8.8450 -9.1429 3.0395 12.2431 0.0000 0.0000 0.0000 -9.0980 -38.3492 10.2315 0.0135 -0.7505 -2.0626 -5.2627 38.0085 -27.3927 0.0079 -0.5752 -1.5805 0.0000 0.0000 0.0000 25.2251 25.4153 1.1942 -0.0160 -0.8167 2.2447 1.3237 -23.8827 -23.3650 -0.1436 -2.4422 6.7293 8.1228 3.6430 6.1993 1.4729 5.8767 -5.4489 -3.7253 2.4182 -8.6442 -3.0425 -8.8181 -12.6129 4.6291 -12.9536 24.5506 0.4597 -5.7058 10.4487 -0.0000 0.0000 0.0000 -88.3832 4.6420 16.9242 88.4449 -59.9909 -58.6533 -0.0000 0.0000 -61.8374 28.9056 15.4314 8.3581 -7.1250 0.0000 -0.0000 1.2187 47.4771 0.0745 -0.0000 0.0000 0.0000 104.9981 64.6370 73.0241 -26.3326 37.5352 -9.0895 0.0000 -0.0000 -19.0061 27.5446 -61.7013 -24.6658 7.1250 -0.0000 -0.0000 77.1850 63.7083 104.3757
